<!DOCTYPE svg PUBLIC "-//W3C//DTD SVG 1.1//EN" "http://www.w3.org/Graphics/SVG/1.1/DTD/svg11.dtd">
<!-- Uploaded to: SVG Repo, www.svgrepo.com, Transformed by: SVG Repo Mixer Tools -->
<svg width="64px" height="64px" viewBox="0 0 32 32" id="svg5" version="1.1" xmlns="http://www.w3.org/2000/svg" xmlns:svg="http://www.w3.org/2000/svg" fill="white" stroke="white">
<g id="SVGRepo_bgCarrier" stroke-width="0"/>
<g id="SVGRepo_tracerCarrier" stroke-linecap="round" stroke-linejoin="round"/>
<g id="SVGRepo_iconCarrier"> <defs id="defs2"/> <g id="layer1" transform="translate(36,-292)"> <path d="m -27,316.00586 c -1.645008,0 -3,1.35499 -3,3 0,1.64501 1.354992,3 3,3 1.645008,0 3,-1.35499 3,-3 0,-1.64501 -1.354992,-3 -3,-3 z m 0,2 c 0.564129,0 1,0.43587 1,1 0,0.56413 -0.435871,1 -1,1 -0.564129,0 -1,-0.43587 -1,-1 0,-0.56413 0.435871,-1 1,-1 z" id="circle5359" style="color:#000000;fill:#000000;fill-rule:evenodd;stroke-linecap:round;stroke-linejoin:round;stroke-miterlimit:4.1;-inkscape-stroke:none"/> <path d="m -13,316.00586 c -1.645008,0 -3,1.35499 -3,3 0,1.64501 1.354992,3 3,3 1.645008,0 3,-1.35499 3,-3 0,-1.64501 -1.354992,-3 -3,-3 z m 0,2 c 0.564129,0 1,0.43587 1,1 0,0.56413 -0.435871,1 -1,1 -0.564129,0 -1,-0.43587 -1,-1 0,-0.56413 0.435871,-1 1,-1 z" id="circle5361" style="color:#000000;fill:#000000;fill-rule:evenodd;stroke-linecap:round;stroke-linejoin:round;stroke-miterlimit:4.1;-inkscape-stroke:none"/> <path d="m -12,294.00586 c -3.30186,0 -6,2.69814 -6,6 0,3.30186 2.69814,6 6,6 3.30186,0 6,-2.69814 6,-6 0,-3.30186 -2.69814,-6 -6,-6 z m 0,2 c 2.2209809,0 4,1.77902 4,4 0,2.22098 -1.7790191,4 -4,4 -2.220981,0 -4,-1.77902 -4,-4 0,-2.22098 1.779019,-4 4,-4 z" id="circle43373-3" style="color:#000000;fill:#000000;fill-rule:evenodd;stroke-linecap:round;stroke-linejoin:round;stroke-miterlimit:4.1;-inkscape-stroke:none"/> <path d="m -9.8984375,298.01172 a 1,1 0 0 0 -0.7343755,0.21875 l -2.029296,1.65625 -0.65625,-0.61133 a 1,1 0 0 0 -1.41211,0.0488 1,1 0 0 0 0.04883,1.41211 l 1.292969,1.20898 a 1.0001,1.0001 0 0 0 1.3125,0.043 l 2.7089845,-2.20703 a 1,1 0 0 0 0.1425781,-1.40625 1,1 0 0 0 -0.6738281,-0.36328 z" id="path43375-6" style="color:#000000;fill:#000000;fill-rule:evenodd;stroke-linecap:round;stroke-linejoin:round;stroke-miterlimit:4.1;-inkscape-stroke:none"/> <path d="m -32.95117,294 a 1,1 0 0 0 -1,1 1,1 0 0 0 1,1 h 1.17969 l 2.65039,13.24219 c -1.07078,0.46018 -1.83008,1.52737 -1.83008,2.75781 0,1.6447 1.3553,3 3,3 h 17 a 1,1 0 0 0 1,-1 1,1 0 0 0 -1,-1 h -17 c -0.5713,0 -1,-0.4287 -1,-1 0,-0.5713 0.4287,-1 1,-1 h 15 a 1,1 0 0 0 0.0293,-0.006 h 2.9707 a 1.0001,1.0001 0 0 0 0.98828,-0.84375 l 0.93945,-5.96875 A 1,1 0 0 0 -8.85547,303.03697 1,1 0 0 0 -10,303.87095 l -0.80664,5.12319 H -27.13086 L -28.93164,300 h 12.08399 a 1,1 0 0 0 1,-1 1,1 0 0 0 -1,-1 h -12.48438 l -0.63867,-3.19531 A 1.0001,1.0001 0 0 0 -30.95117,294 Z" id="path21288" style="color:#000000;fill:#000000;fill-rule:evenodd;stroke-linecap:round;stroke-linejoin:round;stroke-miterlimit:4.1;-inkscape-stroke:none"/> </g> </g>
</svg>