<!DOCTYPE svg PUBLIC "-//W3C//DTD SVG 1.1//EN" "http://www.w3.org/Graphics/SVG/1.1/DTD/svg11.dtd">
<!-- Uploaded to: SVG Repo, www.svgrepo.com, Transformed by: SVG Repo Mixer Tools -->
<svg fill="#5B5B5B" height="800px" width="800px" version="1.1" id="Layer_1" xmlns="http://www.w3.org/2000/svg" xmlns:xlink="http://www.w3.org/1999/xlink" viewBox="0 0 299.594 299.594" xml:space="preserve">
<g id="SVGRepo_bgCarrier" stroke-width="0"/>
<g id="SVGRepo_tracerCarrier" stroke-linecap="round" stroke-linejoin="round"/>
<g id="SVGRepo_iconCarrier"> <g> <g> <g> <path d="M242.974,139.731H43.02c-4.059,0-7.35,3.291-7.35,7.35c0,4.06,3.291,7.35,7.35,7.35h199.954c4.06,0,7.35-3.291,7.35-7.35 S247.034,139.731,242.974,139.731z"/> <path d="M197.45,173.151H43.02c-4.059,0-7.35,3.291-7.35,7.35c0,4.059,3.291,7.35,7.35,7.35h154.43c4.06,0,7.35-3.291,7.35-7.35 C204.8,176.441,201.511,173.151,197.45,173.151z"/> <path d="M94.881,116.246h96.231c4.06,0,7.35-3.291,7.35-7.35V59.073c0-4.059-3.29-7.35-7.35-7.35H94.881 c-4.059,0-7.35,3.291-7.35,7.35v49.822C87.531,112.955,90.822,116.246,94.881,116.246z M102.231,66.423h81.531v35.122h-81.531 V66.423z"/> <path d="M285.993,170.54V23.24c0-4.059-3.29-7.35-7.35-7.35H7.35C3.291,15.89,0,19.181,0,23.24v194.839 c0,4.059,3.291,7.35,7.35,7.35h217.81c1.048,1.427,2.187,2.781,3.406,4.061v46.86c0,6.552,7.948,9.794,12.548,5.197 l17.275-17.276l17.276,17.276c4.613,4.611,12.548,1.347,12.548-5.197v-46.86C304.177,212.725,303.264,186.154,285.993,170.54z M218.326,210.728H14.7V30.59h256.593v131.36C240.788,151.908,210.759,179.337,218.326,210.728z M273.512,258.604l-9.926-9.926 c-2.869-2.868-7.523-2.87-10.395,0l-9.925,9.925v-19.172c9.664,3.815,20.575,3.816,30.247,0V258.604z M258.389,227.607 c-14.688,0-26.504-11.985-26.504-26.505c0-14.612,11.887-26.504,26.504-26.504c14.645,0,26.505,11.929,26.505,26.504 C284.893,215.747,272.973,227.607,258.389,227.607z"/> </g> </g> </g> </g>
</svg>