<!DOCTYPE svg PUBLIC "-//W3C//DTD SVG 1.1//EN" "http://www.w3.org/Graphics/SVG/1.1/DTD/svg11.dtd">
<!-- Uploaded to: SVG Repo, www.svgrepo.com, Transformed by: SVG Repo Mixer Tools -->
<svg height="64px" width="64px" version="1.1" id="Capa_1" xmlns="http://www.w3.org/2000/svg" xmlns:xlink="http://www.w3.org/1999/xlink" viewBox="0 0 28.33 28.33" xml:space="preserve" fill="#f0eaea" stroke="#f0eaea">
<g id="SVGRepo_bgCarrier" stroke-width="0"/>
<g id="SVGRepo_tracerCarrier" stroke-linecap="round" stroke-linejoin="round"/>
<g id="SVGRepo_iconCarrier"> <g> <g> <path style="fill:#010002;" d="M16.825,12.063H4.421c-0.309,0-0.556,0.247-0.556,0.555s0.247,0.556,0.556,0.556h12.403 c0.309,0,0.557-0.25,0.557-0.556C17.379,12.311,17.13,12.063,16.825,12.063z"/> <path style="fill:#010002;" d="M19.659,20.761c-0.079-0.145-0.148-0.275-0.216-0.41H2.202V4.315h20.966v13.254 c0.004,0.002,0.007,0.002,0.01,0.002c0.286-0.186,0.634-0.313,1.021-0.313c0.25,0,0.595,0.057,0.967,0.275 c0.119-0.018,0.253-0.029,0.395-0.029c0.546,0,1.026,0.189,1.426,0.5V4.293c0-1.011-0.82-1.83-1.832-1.83H1.831 C0.82,2.463,0,3.281,0,4.293v16.082c0,1.012,0.821,1.83,1.831,1.83h15.415c-0.016-0.154-0.004-0.311,0.035-0.465 c0.13-0.504,0.627-1.092,1.595-1.092C19.12,20.649,19.382,20.687,19.659,20.761z"/> <path style="fill:#010002;" d="M7.97,10.235c0.115,0,0.208-0.093,0.208-0.209V6.138c0-0.114-0.094-0.208-0.208-0.208H4.364 c-0.112,0-0.208,0.093-0.208,0.208v3.888c0,0.115,0.095,0.209,0.208,0.209H7.97z"/> <path style="fill:#010002;" d="M16.825,14.364H4.421c-0.309,0-0.556,0.25-0.556,0.555c0,0.309,0.247,0.557,0.556,0.557h12.403 c0.309,0,0.557-0.25,0.557-0.557C17.379,14.61,17.13,14.364,16.825,14.364z"/> <path style="fill:#010002;" d="M16.825,16.862H4.421c-0.309,0-0.556,0.248-0.556,0.557c0,0.307,0.247,0.557,0.556,0.557h12.403 c0.309,0,0.557-0.25,0.557-0.557C17.379,17.108,17.13,16.862,16.825,16.862z"/> <path style="fill:#010002;" d="M28.19,23.362c-0.172-1.971-0.922-3.104-1.393-4.068c-0.586-1.207-1.854-0.689-1.854-0.689 c-0.924-0.889-1.604,0.166-1.604,0.166c-1.035-0.832-1.62,0.402-1.62,0.402c-0.139,0.027-2.094-3.141-2.151-3.24 c-0.506-0.863-1.576-0.426-0.985,0.613c1.467,2.584,1.52,3.037,2.088,3.994c0.246,0.414,1.456,2.408,0.899,2.523 c-0.498,0.104-1.104-0.996-1.99-1.293c-1.397-0.467-1.629,0.424-1.073,0.73c0.162,0.09,0.931,0.402,1.508,1.482 c0.131,0.248,0.972,0.428,1.243,0.59c1.771,1.055,1.992,0.848,2.7,0.857c0.769,0.012,0.891,0.438,0.891,0.438l3.481-1.738 C28.331,24.132,28.205,23.558,28.19,23.362z"/> </g> </g> </g>
</svg>