<!DOCTYPE svg PUBLIC "-//W3C//DTD SVG 1.1//EN" "http://www.w3.org/Graphics/SVG/1.1/DTD/svg11.dtd">
<!-- Uploaded to: SVG Repo, www.svgrepo.com, Transformed by: SVG Repo Mixer Tools -->
<svg version="1.1" id="Layer_1" xmlns="http://www.w3.org/2000/svg" xmlns:xlink="http://www.w3.org/1999/xlink" viewBox="0 0 512 512" xml:space="preserve" width="64px" height="64px" fill="#ffffff">
<g id="SVGRepo_bgCarrier" stroke-width="0"/>
<g id="SVGRepo_tracerCarrier" stroke-linecap="round" stroke-linejoin="round"/>
<g id="SVGRepo_iconCarrier"> <path style="fill:#FFFFFF;" d="M22.338,102.322h155.063c11.24,0,20.353,9.113,20.353,20.353v266.649 c0,11.24-9.113,20.353-20.353,20.353H22.338c-11.24,0-20.353-9.113-20.353-20.353V122.676 C1.985,111.427,11.097,102.322,22.338,102.322z"/> <path style="fill:#AAC1CE;" d="M177.417,411.67H22.346C10.01,411.654,0.016,401.652,0,389.317V122.676 c0.016-12.328,10.01-22.322,22.338-22.338h155.079c12.328,0.016,22.322,10.01,22.338,22.338v266.649 C199.739,401.652,189.753,411.646,177.417,411.67z M22.346,104.307c-10.145,0.008-18.361,8.224-18.377,18.369v266.649 c0.016,10.137,8.232,18.353,18.369,18.369h155.079c10.137-0.016,18.353-8.232,18.369-18.369V122.676 c-0.016-10.137-8.232-18.353-18.369-18.369H22.346z"/> <path style="fill:#FFFFFF;" d="M334.607,102.322H489.67c11.24,0,20.353,9.113,20.353,20.353v266.649 c0,11.24-9.113,20.353-20.353,20.353H334.607c-11.24,0-20.353-9.113-20.353-20.353V122.676 C314.254,111.427,323.367,102.322,334.607,102.322z"/> <path style="fill:#AAC1CE;" d="M489.662,411.67H334.591c-12.328-0.016-22.322-10.01-22.338-22.338V122.676 c0.016-12.328,10.01-22.322,22.338-22.338h155.071c12.328,0.016,22.322,10.01,22.338,22.338v266.649 C511.984,401.652,501.998,411.646,489.662,411.67z M334.591,104.307c-10.137,0.016-18.353,8.232-18.369,18.369v266.649 c0.008,10.145,8.224,18.361,18.369,18.377h155.071c10.137-0.016,18.353-8.232,18.369-18.369V122.676 c-0.016-10.137-8.232-18.353-18.369-18.369H334.591z"/> <g> <path style="fill:#8BA0AE;" d="M375.671,183.481v-2.683l3.429-3.326c8.248-7.843,11.971-12.018,12.026-16.884 c0.325-3.167-1.977-5.993-5.144-6.319c-0.421-0.04-0.849-0.04-1.27,0.008c-2.532,0.095-4.953,1.056-6.851,2.731l-1.389-3.08 c2.564-2.135,5.803-3.294,9.137-3.278c4.993-0.445,9.407,3.247,9.843,8.248c0.032,0.381,0.04,0.762,0.032,1.143 c0,5.962-4.318,10.772-11.113,17.337l-2.58,2.381v0.095h14.503v3.628L375.671,183.481z"/> <path style="fill:#8BA0AE;" d="M403.653,180.409c1.175,0.064,2.358,0.016,3.525-0.151c2.524-0.318,4.89-1.413,6.755-3.136 c2.381-2.278,3.89-5.319,4.271-8.589h-0.151c-1.858,2.27-4.66,3.556-7.597,3.477c-5.16,0.103-9.43-3.993-9.542-9.161 c-0.008-0.238,0-0.484,0.016-0.722c-0.222-6.104,4.549-11.24,10.653-11.463c0.127-0.008,0.246-0.008,0.373-0.008 c6.605,0,10.677,5.366,10.677,13.614c0.31,5.596-1.699,11.074-5.557,15.146c-2.572,2.429-5.874,3.945-9.391,4.318 c-1.334,0.214-2.675,0.294-4.025,0.246L403.653,180.409z M405.24,161.834c-0.357,3.413,2.119,6.462,5.533,6.819 c0.222,0.024,0.452,0.032,0.675,0.032c2.564,0.079,4.985-1.207,6.35-3.382c0.286-0.476,0.421-1.032,0.397-1.588 c0-5.509-2.04-9.732-6.605-9.732C407.884,153.991,405.24,157.27,405.24,161.834z"/> <path style="fill:#8BA0AE;" d="M426.935,180.902c-0.111-1.619,1.111-3.016,2.731-3.128c0.087-0.008,0.167-0.008,0.254-0.008 c1.73-0.079,3.199,1.254,3.286,2.985c0.079,1.731-1.254,3.199-2.985,3.286c-1.73,0.079-3.199-1.254-3.286-2.985 C426.935,180.997,426.935,180.949,426.935,180.902z"/> <path style="fill:#8BA0AE;" d="M439.374,180.409c1.175,0.064,2.358,0.016,3.525-0.151c2.524-0.318,4.89-1.413,6.755-3.136 c2.381-2.278,3.89-5.319,4.271-8.589h-0.151c-1.858,2.27-4.66,3.556-7.597,3.477c-5.16,0.103-9.43-3.993-9.542-9.161 c-0.008-0.238,0-0.484,0.016-0.722c-0.222-6.104,4.549-11.24,10.653-11.463c0.127-0.008,0.246-0.008,0.373-0.008 c6.604,0,10.677,5.366,10.677,13.614c0.31,5.596-1.699,11.074-5.557,15.146c-2.572,2.429-5.874,3.945-9.391,4.318 c-1.334,0.214-2.675,0.294-4.025,0.246L439.374,180.409z M440.962,161.834c-0.357,3.413,2.119,6.462,5.533,6.819 c0.222,0.024,0.452,0.032,0.675,0.032c2.564,0.079,4.985-1.207,6.35-3.382c0.286-0.476,0.421-1.032,0.397-1.588 c0-5.509-2.04-9.732-6.605-9.732C443.613,153.991,440.962,157.27,440.962,161.834z"/> <path style="fill:#8BA0AE;" d="M464.848,180.409c1.175,0.064,2.358,0.016,3.525-0.151c2.524-0.318,4.89-1.413,6.755-3.136 c2.381-2.278,3.89-5.319,4.271-8.589h-0.151c-1.858,2.27-4.66,3.556-7.597,3.477c-5.16,0.103-9.43-3.993-9.542-9.161 c-0.008-0.238,0-0.484,0.016-0.722c-0.222-6.104,4.549-11.24,10.653-11.463c0.127-0.008,0.246-0.008,0.373-0.008 c6.605,0,10.677,5.366,10.677,13.614c0.318,5.612-1.691,11.097-5.557,15.178c-2.572,2.429-5.874,3.945-9.391,4.318 c-1.334,0.214-2.675,0.294-4.025,0.246L464.848,180.409z M466.435,161.834c-0.357,3.413,2.119,6.462,5.533,6.819 c0.222,0.024,0.452,0.032,0.675,0.032c2.564,0.079,4.985-1.207,6.35-3.382c0.286-0.476,0.421-1.032,0.397-1.588 c0-5.509-2.04-9.732-6.604-9.732C469.071,153.991,466.435,157.27,466.435,161.834z"/> <path style="fill:#8BA0AE;" d="M47.065,180.409c1.175,0.064,2.358,0.016,3.525-0.151c2.524-0.318,4.89-1.413,6.755-3.136 c2.381-2.278,3.89-5.319,4.271-8.589h-0.151c-1.858,2.27-4.66,3.556-7.597,3.477c-5.16,0.103-9.43-3.993-9.542-9.161 c-0.008-0.238,0-0.484,0.016-0.722c-0.222-6.104,4.549-11.24,10.653-11.463c0.127-0.008,0.246-0.008,0.373-0.008 c6.605,0,10.677,5.366,10.677,13.614c0.31,5.612-1.707,11.105-5.573,15.178c-2.572,2.429-5.874,3.945-9.391,4.318 c-1.334,0.214-2.675,0.294-4.025,0.246L47.065,180.409z M48.653,161.834c-0.357,3.413,2.119,6.462,5.533,6.819 c0.222,0.024,0.452,0.032,0.675,0.032c2.564,0.079,4.985-1.207,6.35-3.382c0.286-0.476,0.421-1.032,0.397-1.588 c0-5.509-2.04-9.732-6.605-9.732C51.288,153.991,48.653,157.27,48.653,161.834z"/> <path style="fill:#8BA0AE;" d="M70.34,180.902c-0.111-1.619,1.111-3.016,2.731-3.128c0.087-0.008,0.167-0.008,0.254-0.008 c1.731-0.079,3.199,1.254,3.286,2.985c0.079,1.731-1.254,3.199-2.985,3.286c-1.731,0.079-3.199-1.254-3.286-2.985 C70.34,180.997,70.34,180.949,70.34,180.902z"/> <path style="fill:#8BA0AE;" d="M82.794,180.409c1.175,0.064,2.358,0.016,3.525-0.151c2.524-0.318,4.89-1.413,6.755-3.136 c2.381-2.278,3.89-5.319,4.271-8.589h-0.151c-1.858,2.27-4.66,3.556-7.597,3.477c-5.16,0.103-9.43-3.993-9.542-9.161 c-0.008-0.238,0-0.484,0.016-0.722c-0.222-6.104,4.549-11.24,10.653-11.463c0.127-0.008,0.246-0.008,0.373-0.008 c6.605,0,10.677,5.366,10.677,13.614c0.31,5.596-1.699,11.074-5.557,15.146c-2.572,2.429-5.874,3.945-9.391,4.318 c-1.334,0.214-2.675,0.294-4.025,0.246L82.794,180.409z M84.382,161.834c-0.357,3.413,2.119,6.462,5.533,6.819 c0.222,0.024,0.452,0.032,0.675,0.032c2.564,0.079,4.985-1.207,6.35-3.382c0.286-0.476,0.421-1.032,0.397-1.588 c0-5.509-2.04-9.732-6.604-9.732C87.018,153.991,84.382,157.27,84.382,161.834z"/> <path style="fill:#8BA0AE;" d="M108.252,180.409c1.175,0.064,2.358,0.016,3.525-0.151c2.524-0.318,4.89-1.413,6.755-3.136 c2.381-2.278,3.89-5.319,4.271-8.589h-0.159c-1.858,2.27-4.66,3.556-7.597,3.477c-5.16,0.103-9.43-3.993-9.542-9.161 c-0.008-0.238,0-0.484,0.016-0.722c-0.222-6.104,4.549-11.24,10.653-11.463c0.127-0.008,0.246-0.008,0.373-0.008 c6.605,0,10.677,5.366,10.677,13.614c0.31,5.596-1.699,11.074-5.557,15.146c-2.572,2.429-5.874,3.945-9.391,4.318 c-1.334,0.214-2.675,0.294-4.025,0.246L108.252,180.409z M109.84,161.834c-0.357,3.413,2.119,6.462,5.533,6.819 c0.222,0.024,0.452,0.032,0.675,0.032c2.564,0.079,4.985-1.207,6.35-3.382c0.286-0.476,0.421-1.032,0.397-1.588 c0-5.509-2.04-9.732-6.605-9.732C112.475,153.991,109.84,157.27,109.84,161.834z"/> </g> <g> <rect x="379.997" y="222.426" style="fill:#AAC1CE;" width="54.574" height="7.938"/> <rect x="379.997" y="252.035" style="fill:#AAC1CE;" width="87.319" height="7.938"/> <rect x="379.997" y="281.668" style="fill:#AAC1CE;" width="87.319" height="7.938"/> <rect x="379.997" y="311.333" style="fill:#AAC1CE;" width="87.319" height="7.938"/> <rect x="379.997" y="340.95" style="fill:#AAC1CE;" width="87.319" height="7.938"/> <rect x="72.451" y="222.426" style="fill:#AAC1CE;" width="54.574" height="7.938"/> <rect x="39.691" y="252.035" style="fill:#AAC1CE;" width="87.319" height="7.938"/> <rect x="39.691" y="281.668" style="fill:#AAC1CE;" width="87.319" height="7.938"/> <rect x="39.691" y="311.333" style="fill:#AAC1CE;" width="87.319" height="7.938"/> <rect x="39.691" y="340.95" style="fill:#AAC1CE;" width="87.319" height="7.938"/> </g> <path style="fill:#FFFFFF;" d="M154.229,64.203h203.541c14.757,0,26.72,11.963,26.72,26.72v330.162 c0,14.757-11.963,26.72-26.72,26.72H154.229c-14.757,0-26.72-11.963-26.72-26.72V90.923 C127.51,76.166,139.473,64.203,154.229,64.203z"/> <path style="fill:#AAC1CE;" d="M357.771,449.781H154.237c-15.844-0.016-28.688-12.86-28.712-28.704V90.923 c0.024-15.844,12.868-28.688,28.712-28.704h203.533c15.844,0.016,28.688,12.86,28.704,28.704v330.162 C386.459,436.929,373.615,449.765,357.771,449.781z M154.237,66.188c-13.654,0.016-24.727,11.082-24.743,24.735v330.162 c0.016,13.654,11.09,24.719,24.743,24.735h203.533c13.654-0.016,24.719-11.082,24.735-24.735V90.923 c-0.016-13.654-11.082-24.719-24.735-24.735H154.237z"/> <g> <path style="fill:#E81241;" d="M194.539,117.301h-0.143l-7.771,4.191l-1.167-4.604l9.764-5.231h5.16v44.723h-5.842V117.301z"/> <path style="fill:#E81241;" d="M220.195,152.11c1.627,0.095,3.263,0.024,4.882-0.206c3.493-0.429,6.771-1.945,9.359-4.334 c3.302-3.159,5.39-7.367,5.914-11.907h-0.222c-2.572,3.143-6.462,4.922-10.526,4.811c-7.152,0.151-13.074-5.525-13.225-12.677 c-0.008-0.341,0-0.675,0.016-1.016c-0.302-8.462,6.311-15.567,14.773-15.868c0.167-0.008,0.333-0.008,0.5-0.008 c9.145,0,14.789,7.43,14.789,18.845c0.429,7.756-2.366,15.352-7.708,20.988c-3.564,3.366-8.129,5.469-13.003,5.985 c-1.834,0.302-3.699,0.421-5.557,0.349L220.195,152.11z M222.394,126.375c-0.508,4.723,2.913,8.97,7.636,9.478 c0.318,0.032,0.643,0.048,0.961,0.048c3.556,0.119,6.906-1.659,8.803-4.676c0.389-0.667,0.579-1.429,0.548-2.199 c0-7.636-2.818-13.495-9.145-13.495C226.038,115.507,222.394,120.048,222.394,126.375z"/> <path style="fill:#E81241;" d="M252.456,152.793c-0.143-2.246,1.556-4.183,3.802-4.326c0.111-0.008,0.222-0.008,0.333-0.008 c2.397,0.119,4.239,2.159,4.12,4.556c-0.111,2.254-1.937,4.048-4.191,4.12c-2.246,0.008-4.072-1.81-4.072-4.056 C252.448,152.983,252.448,152.888,252.456,152.793z"/> <path style="fill:#E81241;" d="M269.729,152.11c1.627,0.095,3.263,0.024,4.882-0.206c3.493-0.429,6.771-1.945,9.359-4.334 c3.302-3.159,5.39-7.367,5.914-11.907h-0.198c-2.572,3.143-6.462,4.922-10.526,4.811c-7.152,0.151-13.074-5.525-13.225-12.677 c-0.008-0.341,0-0.675,0.016-1.016c-0.302-8.462,6.311-15.567,14.773-15.868c0.167-0.008,0.333-0.008,0.5-0.008 c9.145,0,14.789,7.43,14.789,18.845c0.429,7.756-2.366,15.352-7.708,20.988c-3.564,3.366-8.129,5.469-13.003,5.985 c-1.834,0.302-3.699,0.421-5.557,0.349L269.729,152.11z M271.928,126.375c-0.508,4.723,2.913,8.97,7.636,9.478 c0.318,0.032,0.643,0.048,0.96,0.048c3.556,0.119,6.906-1.659,8.803-4.676c0.389-0.667,0.579-1.429,0.548-2.199 c0-7.636-2.818-13.495-9.145-13.495C275.571,115.507,271.936,120.048,271.928,126.375L271.928,126.375z"/> <path style="fill:#E81241;" d="M305.022,152.11c1.627,0.095,3.263,0.024,4.882-0.206c3.493-0.429,6.771-1.945,9.359-4.334 c3.302-3.159,5.39-7.367,5.914-11.907h-0.198c-2.572,3.143-6.462,4.922-10.526,4.811c-7.152,0.151-13.066-5.517-13.217-12.669 c-0.008-0.333,0-0.675,0.016-1.008c-0.302-8.462,6.311-15.567,14.773-15.868c0.167-0.008,0.333-0.008,0.5-0.008 c9.153,0,14.789,7.43,14.789,18.845c0.429,7.756-2.366,15.352-7.708,20.988c-3.556,3.366-8.129,5.469-13.003,5.985 c-1.834,0.302-3.699,0.421-5.557,0.349L305.022,152.11z M307.221,126.375c-0.508,4.723,2.913,8.97,7.636,9.478 c0.318,0.032,0.643,0.048,0.96,0.048c3.556,0.119,6.906-1.659,8.803-4.676c0.389-0.667,0.579-1.429,0.548-2.199 c0-7.636-2.81-13.495-9.145-13.495C310.872,115.507,307.229,120.048,307.221,126.375L307.221,126.375z"/> </g> <rect x="171.288" y="355.5" style="fill:#32BEA6;" width="169.431" height="59.004"/> <polygon style="fill:#88D8C9;" points="171.288,392.825 171.288,355.484 208.629,355.484 "/> <g> <path style="fill:#FFFFFF;" d="M232.587,374.004c1.738-0.325,3.509-0.476,5.279-0.468c2.175-0.198,4.35,0.373,6.136,1.627 c1.238,0.937,1.937,2.421,1.858,3.969c-0.071,2.278-1.596,4.263-3.786,4.914v0.064c2.667,0.548,4.596,2.889,4.612,5.612 c0.024,1.691-0.659,3.318-1.889,4.477c-2.231,1.627-4.985,2.374-7.732,2.096c-1.5,0.016-2.993-0.079-4.477-0.27V374.004z M235.476,383.165h2.62c3.056,0,4.842-1.588,4.842-3.755c0-2.62-1.985-3.652-4.914-3.652c-0.857-0.024-1.715,0.04-2.556,0.198 L235.476,383.165z M235.476,393.881c0.802,0.111,1.611,0.159,2.421,0.143c2.985,0,5.739-1.103,5.739-4.35 c0-3.056-2.62-4.318-5.779-4.318h-2.381V393.881z"/> <path style="fill:#FFFFFF;" d="M263.942,391.698c0,1.659,0,3.12,0.135,4.382h-2.588l-0.167-2.62h-0.064 c-1.103,1.881-3.136,3.024-5.311,2.985c-2.516,0-5.557-1.397-5.557-7.041v-9.391h2.921v8.891c0,3.056,0.929,5.12,3.588,5.12 c2.27,0.008,4.104-1.826,4.112-4.096c0-0.016,0-0.04,0-0.056v-9.859h2.929V391.698z"/> <path style="fill:#FFFFFF;" d="M269.8,380.013l3.517,9.526c0.365,1.064,0.794,2.326,1.032,3.286h0.064 c0.302-0.961,0.635-2.183,1.032-3.35l3.175-9.423h3.088l-4.382,11.447c-1.016,3.739-2.905,7.192-5.509,10.058 c-1.008,0.929-2.239,1.58-3.58,1.889l-0.73-2.461c0.937-0.31,1.802-0.794,2.556-1.429c1.056-0.881,1.897-1.992,2.453-3.247 c0.119-0.214,0.19-0.452,0.23-0.699c-0.016-0.27-0.087-0.54-0.191-0.794l-5.946-14.797L269.8,380.013z"/> </g> <rect x="227.133" y="197.572" style="fill:#E81241;" width="57.734" height="7.938"/> <g> <rect x="171.288" y="227.205" style="fill:#AAC1CE;" width="169.439" height="7.938"/> <rect x="171.288" y="256.845" style="fill:#AAC1CE;" width="169.439" height="7.938"/> <rect x="171.288" y="286.486" style="fill:#AAC1CE;" width="169.439" height="7.938"/> <rect x="171.288" y="316.119" style="fill:#AAC1CE;" width="169.439" height="7.938"/> </g> </g>
</svg>