<!DOCTYPE svg PUBLIC "-//W3C//DTD SVG 1.1//EN" "http://www.w3.org/Graphics/SVG/1.1/DTD/svg11.dtd">
<!-- Uploaded to: SVG Repo, www.svgrepo.com, Transformed by: SVG Repo Mixer Tools -->
<svg width="800px" height="800px" viewBox="0 0 36 36" xmlns="http://www.w3.org/2000/svg" xmlns:xlink="http://www.w3.org/1999/xlink" aria-hidden="true" role="img" class="iconify iconify--twemoji" preserveAspectRatio="xMidYMid meet" fill="#ffffff" stroke="#ffffff">
<g id="SVGRepo_bgCarrier" stroke-width="0"/>
<g id="SVGRepo_tracerCarrier" stroke-linecap="round" stroke-linejoin="round"/>
<g id="SVGRepo_iconCarrier">
<path fill="#8D1B3D" d="M32 5H11v26h21a4 4 0 0 0 4-4V9a4 4 0 0 0-4-4z"/>
<path fill="#ffffff" d="M11 28.111l5.295-1.444L11 25.222l5.295-1.444L11 22.333l5.295-1.444L11 19.444L16.295 18L11 16.556l5.295-1.444L11 13.667l5.295-1.444L11 10.778l5.295-1.445L11 7.889l5.295-1.444L11 5H4a4 4 0 0 0-4 4v18a4 4 0 0 0 4 4h7l5.295-1.444L11 28.111z"/>
</g>
</svg>