<svg width="112" height="97" viewBox="0 0 112 97" fill="none" xmlns="http://www.w3.org/2000/svg">
<path fill-rule="evenodd" clip-rule="evenodd" d="M37.4678 0L47.2652 19.5947L46.2424 19.9924C37.3963 23.4326 32.2638 26.8867 29.3 31.2544C26.3402 35.6161 25.4308 41.0523 25.43 48.7504H48.86V96.6204H0V52.3904C0 38.9199 2.32661 28.2965 8.13625 19.8153C13.9485 11.3303 23.1535 5.12489 36.6329 0.29892L37.4678 0ZM44.9463 19.429C27.9363 26.2487 24.4315 33.522 24.43 48.7504C24.43 48.7537 24.43 48.7571 24.43 48.7604V49.7504H47.86V95.6204H1V52.3904C1 25.6604 10.24 10.8104 36.97 1.24039L45.88 19.0604C45.5643 19.1832 45.2531 19.306 44.9463 19.429ZM99.8378 0L109.635 19.5947L108.612 19.9924C99.7663 23.4326 94.6338 26.8867 91.67 31.2544C88.7102 35.6161 87.8008 41.0523 87.8 48.7504H111.23V96.6204H62.37V52.3904C62.37 38.9199 64.6966 28.2965 70.5062 19.8153C76.3185 11.3303 85.5235 5.12489 99.0029 0.29892L99.8378 0ZM107.316 19.429C90.3063 26.2487 86.8015 33.522 86.8 48.7504C86.8 48.7537 86.8 48.7571 86.8 48.7604V49.7504H110.23V95.6204H63.37V52.3904C63.37 25.6604 72.61 10.8104 99.34 1.24039L108.25 19.0604C107.934 19.1832 107.623 19.306 107.316 19.429Z" fill="#A51C30"/>
</svg>
